# Blender v2.79 (sub 0) OBJ File: 'receiver.blend'
# www.blender.org
mtllib receiver.mtl
o Cube_Cube.001
v -0.164905 1.256193 -0.071228
v -0.164905 1.256193 0.071228
v -0.177761 1.416303 0.075184
v -0.177761 1.416303 -0.075184
v 0.032348 1.083778 -0.070186
v 0.048174 1.156546 -0.110270
v 0.110270 1.156546 -0.048174
v 0.070186 1.083778 -0.032347
v -0.079634 1.521695 0.079634
v -0.079634 1.521695 -0.079634
v -0.048174 1.156546 0.110270
v -0.071228 1.256193 0.164905
v -0.110270 1.156546 0.048174
v 0.000000 1.032105 -0.053389
v -0.032348 1.083778 -0.070186
v 0.079634 1.521695 -0.079634
v 0.177761 1.416303 -0.075184
v 0.075184 1.416303 -0.177761
v 0.164905 1.256193 0.071228
v 0.177761 1.416303 0.075184
v 0.075184 1.416303 0.177761
v 0.071228 1.256193 0.164905
v 0.079634 1.521695 0.079634
v -0.110270 1.156546 -0.048174
v -0.071228 1.256193 -0.164905
v -0.048174 1.156546 -0.110270
v 0.110270 1.156546 0.048174
v 0.164905 1.256193 -0.071228
v 0.071228 1.256193 -0.164905
v -0.075184 1.416303 -0.177761
v -0.046715 1.032105 -0.046715
v 0.070186 1.083778 0.032348
v 0.048174 1.156546 0.110270
v 0.032348 1.083778 0.070186
v 0.046715 1.032105 -0.046715
v 0.053389 1.032105 0.000000
v -0.075184 1.416303 0.177761
v 0.000000 1.032105 0.053389
v -0.032348 1.083778 0.070186
v -0.053389 1.032105 0.000000
v -0.070186 1.083778 -0.032347
v 0.046715 1.032105 0.046715
v -0.070186 1.083778 0.032348
v -0.046715 1.032105 0.046715
v -0.049728 0.370065 -0.250000
v -0.049728 0.921761 -0.250000
v 0.049728 0.921761 -0.250000
v 0.049728 0.370065 -0.250000
v 0.141614 0.921761 -0.211940
v 0.022219 1.035759 -0.111702
v 0.063274 1.035759 -0.094697
v 0.250000 0.370065 -0.049728
v 0.211940 0.370065 -0.141614
v 0.211940 0.921761 -0.141613
v 0.250000 0.921761 -0.049728
v 0.000000 0.021695 0.000000
v 0.141614 0.370065 -0.211940
v 0.250000 0.370065 0.049728
v 0.250000 0.921761 0.049728
v 0.111703 1.035759 -0.022219
v 0.111703 1.035759 0.022219
v 0.211940 0.370065 0.141614
v 0.211940 0.921761 0.141614
v 0.094697 1.035759 0.063275
v 0.141614 0.370065 0.211940
v 0.141614 0.921761 0.211940
v 0.063274 1.035759 0.094697
v 0.049728 0.370065 0.250000
v 0.049728 0.921761 0.250000
v 0.022219 1.035759 0.111703
v -0.049728 0.370065 0.250000
v -0.049728 0.921761 0.250000
v -0.022219 1.035759 0.111703
v -0.141614 0.370065 0.211940
v -0.141614 0.921761 0.211940
v -0.063274 1.035759 0.094697
v -0.211940 0.370065 0.141614
v -0.211940 0.921761 0.141614
v -0.094697 1.035759 0.063275
v -0.250000 0.370065 0.049728
v -0.250000 0.921761 0.049728
v -0.111702 1.035759 0.022219
v -0.022219 1.035759 -0.111702
v -0.250000 0.370065 -0.049728
v -0.250000 0.921761 -0.049728
v -0.111702 1.035759 -0.022219
v -0.141614 0.370065 -0.211940
v -0.211940 0.370065 -0.141614
v -0.211940 0.921761 -0.141613
v -0.094697 1.035759 -0.063274
v -0.141614 0.921761 -0.211940
v -0.063274 1.035759 -0.094697
v 0.094697 1.035759 -0.063274
vn -0.9968 -0.0800 0.0000
vn 0.6213 -0.4774 -0.6213
vn -0.7319 0.6814 0.0000
vn -0.6192 -0.4828 0.6192
vn 0.0000 -0.3091 -0.9510
vn 0.5987 0.5321 -0.5987
vn 0.7052 -0.0740 0.7052
vn 0.7319 0.6814 0.0000
vn -0.6192 -0.4828 -0.6192
vn 0.8768 -0.4808 0.0000
vn 0.0000 -0.0800 -0.9968
vn -0.1308 -0.3796 -0.9158
vn 0.6213 -0.4774 0.6213
vn 0.7017 -0.1236 -0.7017
vn 0.9510 -0.3092 0.0000
vn 0.5987 0.5321 0.5987
vn 0.0000 0.6814 0.7319
vn 0.6192 -0.4828 -0.6192
vn 0.0000 -0.4808 0.8768
vn 0.9968 -0.0800 0.0000
vn -0.5987 0.5321 0.5987
vn 0.0000 -0.3092 0.9510
vn 0.6192 -0.4828 0.6192
vn 0.0000 -0.0800 0.9968
vn -0.9158 -0.3796 -0.1308
vn -0.7052 -0.0740 0.7052
vn 0.1308 -0.3796 0.9158
vn -0.6213 -0.4774 -0.6213
vn -0.9510 -0.3092 0.0000
vn -0.1308 -0.3796 0.9158
vn 0.0000 -0.4825 0.8759
vn 0.0000 1.0000 0.0000
vn 0.9158 -0.3796 -0.1308
vn -0.8759 -0.4825 0.0000
vn 0.7017 -0.1236 0.7017
vn 0.0000 -0.4825 -0.8759
vn 0.8759 -0.4825 0.0000
vn 0.1308 -0.3796 -0.9158
vn -0.9158 -0.3796 0.1308
vn 0.9158 -0.3796 0.1308
vn -0.7017 -0.1236 0.7017
vn -0.6213 -0.4774 0.6213
vn -0.7017 -0.1236 -0.7017
vn -0.7052 -0.0740 -0.7052
vn -0.8768 -0.4808 0.0000
vn -0.5987 0.5321 -0.5987
vn 0.0000 0.6814 -0.7319
vn 0.0000 -0.4808 -0.8768
vn 0.7052 -0.0740 -0.7052
vn 0.0000 0.0000 -1.0000
vn 0.2434 0.7716 -0.5876
vn 0.9239 0.0000 -0.3827
vn 0.5745 -0.5830 -0.5745
vn 1.0000 0.0000 0.0000
vn 0.6361 0.7716 0.0000
vn 0.7506 -0.5830 -0.3109
vn 0.9239 -0.0000 0.3827
vn 0.5876 0.7716 0.2434
vn 0.8124 -0.5830 0.0000
vn 0.7071 -0.0000 0.7071
vn 0.4498 0.7716 0.4498
vn 0.7506 -0.5830 0.3109
vn 0.3827 -0.0000 0.9239
vn 0.2434 0.7716 0.5876
vn 0.5745 -0.5830 0.5745
vn 0.0000 -0.0000 1.0000
vn 0.0000 0.7716 0.6361
vn 0.3109 -0.5830 0.7506
vn -0.3827 -0.0000 0.9239
vn -0.2434 0.7716 0.5876
vn 0.0000 -0.5830 0.8124
vn -0.7071 -0.0000 0.7071
vn -0.4498 0.7716 0.4498
vn -0.3109 -0.5830 0.7506
vn -0.9239 -0.0000 0.3827
vn -0.5876 0.7716 0.2434
vn -0.5745 -0.5830 0.5745
vn 0.0000 0.7716 -0.6361
vn -1.0000 0.0000 0.0000
vn -0.6361 0.7716 0.0000
vn -0.7506 -0.5830 0.3109
vn -0.3109 -0.5830 -0.7506
vn -0.9239 0.0000 -0.3827
vn -0.5876 0.7716 -0.2434
vn -0.8124 -0.5830 0.0000
vn -0.7071 0.0000 -0.7071
vn -0.4498 0.7716 -0.4498
vn -0.7506 -0.5830 -0.3109
vn -0.3827 0.0000 -0.9239
vn -0.2434 0.7716 -0.5876
vn -0.5745 -0.5830 -0.5745
vn 0.0000 -0.5830 -0.8124
vn 0.3109 -0.5830 -0.7506
vn 0.4498 0.7716 -0.4498
vn 0.3827 0.0000 -0.9239
vn 0.7071 0.0000 -0.7071
vn 0.5876 0.7716 -0.2434
usemtl None
s off
f 1//1 2//1 3//1 4//1
f 5//2 6//2 7//2 8//2
f 4//3 3//3 9//3 10//3
f 11//4 12//4 2//4 13//4
f 14//5 15//5 5//5
f 16//6 17//6 18//6
f 19//7 20//7 21//7 22//7
f 20//8 17//8 16//8 23//8
f 24//9 1//9 25//9 26//9
f 27//10 7//10 28//10 19//10
f 29//11 25//11 30//11 18//11
f 14//12 31//12 15//12
f 32//13 27//13 33//13 34//13
f 8//14 35//14 5//14
f 36//15 8//15 32//15
f 23//16 21//16 20//16
f 37//17 21//17 23//17 9//17
f 6//18 29//18 28//18 7//18
f 11//19 33//19 22//19 12//19
f 19//20 28//20 17//20 20//20
f 37//21 9//21 3//21
f 38//22 34//22 39//22
f 27//23 19//23 22//23 33//23
f 12//24 22//24 21//24 37//24
f 31//25 40//25 41//25
f 3//26 2//26 12//26 37//26
f 38//27 42//27 34//27
f 41//28 24//28 26//28 15//28
f 40//29 43//29 41//29
f 44//30 38//30 39//30
f 33//31 11//31 39//31 34//31
f 23//32 16//32 10//32 9//32
f 36//33 35//33 8//33
f 13//34 24//34 41//34 43//34
f 34//35 42//35 32//35
f 26//36 6//36 5//36 15//36
f 7//37 27//37 32//37 8//37
f 35//38 14//38 5//38
f 40//39 44//39 43//39
f 42//40 36//40 32//40
f 43//41 44//41 39//41
f 11//42 13//42 43//42 39//42
f 15//43 31//43 41//43
f 1//44 4//44 30//44 25//44
f 24//45 13//45 2//45 1//45
f 10//46 30//46 4//46
f 18//47 30//47 10//47 16//47
f 6//48 26//48 25//48 29//48
f 29//49 18//49 17//49 28//49
f 45//50 46//50 47//50 48//50
f 49//51 47//51 50//51 51//51
f 52//52 53//52 54//52 55//52
f 56//53 57//53 53//53
f 58//54 52//54 55//54 59//54
f 59//55 55//55 60//55 61//55
f 56//56 53//56 52//56
f 62//57 58//57 59//57 63//57
f 63//58 59//58 61//58 64//58
f 56//59 52//59 58//59
f 65//60 62//60 63//60 66//60
f 66//61 63//61 64//61 67//61
f 56//62 58//62 62//62
f 68//63 65//63 66//63 69//63
f 69//64 66//64 67//64 70//64
f 56//65 62//65 65//65
f 71//66 68//66 69//66 72//66
f 72//67 69//67 70//67 73//67
f 56//68 65//68 68//68
f 74//69 71//69 72//69 75//69
f 75//70 72//70 73//70 76//70
f 56//71 68//71 71//71
f 77//72 74//72 75//72 78//72
f 78//73 75//73 76//73 79//73
f 56//74 71//74 74//74
f 80//75 77//75 78//75 81//75
f 81//76 78//76 79//76 82//76
f 56//77 74//77 77//77
f 83//78 50//78 47//78 46//78
f 84//79 80//79 81//79 85//79
f 85//80 81//80 82//80 86//80
f 56//81 77//81 80//81
f 56//82 87//82 45//82
f 88//83 84//83 85//83 89//83
f 89//84 85//84 86//84 90//84
f 56//85 80//85 84//85
f 87//86 88//86 89//86 91//86
f 91//87 89//87 90//87 92//87
f 56//88 84//88 88//88
f 45//89 87//89 91//89 46//89
f 46//90 91//90 92//90 83//90
f 56//91 88//91 87//91
f 48//92 56//92 45//92
f 56//93 48//93 57//93
f 54//94 49//94 51//94 93//94
f 57//95 48//95 47//95 49//95
f 53//96 57//96 49//96 54//96
f 55//97 54//97 93//97 60//97
f 50//32 83//32 92//32 90//32 86//32 82//32 79//32 76//32 73//32 70//32 67//32 64//32 61//32 60//32 93//32 51//32
